# xmcd
#
# Track frame offsets:
#	150
#	10530
#	22712
#	36977
#	48513
#	57562
#	69173
#	82122
#	94655
#	108067
#	121138
#	134799
#	147171
#	162612
#	173051
#	184202
#	195558
#	211696
#	226443
#	241924
#
# Disc length: 3412 seconds
#
# Revision: 0
# Processed by: cddbd v1.5.1PL0 Copyright (c) Steve Scherf et al.
# Submitted via: dBpowerAMP V4.0
#
DISCID=0b0d5214
DTITLE=B.B. King - Blues Boy
DYEAR=1900
DGENRE=Blues
TTITLE0=Fine Looking Woman
TTITLE1=Miss Martha King
TTITLE2=Why Did You Leave Me
TTITLE3=Hard Working Woman
TTITLE4=My Baby Is Gone
TTITLE5=Take A Swing With Me (Love You Baby)
TTITLE6=Some Day, Somewhere
TTITLE7=Please Love Me
TTITLE8=3 O'Clock Blues
TTITLE9=Woke Up This Morning
TTITLE10=You Know I Love You
TTITLE11=I Gotta Find My Baby
TTITLE12=My Own Fault Darlin'
TTITLE13=That Ain't The Way To Do It
TTITLE14=B B's Blues
TTITLE15=She's Dynamite
TTITLE16=The Other Nights Blues
TTITLE17=B B's Boogie
TTITLE18=Walkin' and Cryin'
TTITLE19=She Don't Move Me No More
EXTD=
EXTT0=
EXTT1=
EXTT2=
EXTT3=
EXTT4=
EXTT5=
EXTT6=
EXTT7=
EXTT8=
EXTT9=
EXTT10=
EXTT11=
EXTT12=
EXTT13=
EXTT14=
EXTT15=
EXTT16=
EXTT17=
EXTT18=
EXTT19=
PLAYORDER=
